<svg xmlns="http://www.w3.org/2000/svg" width="588.03235" height="630.73075" viewBox="0 0 588.03235 630.73075" xmlns:xlink="http://www.w3.org/1999/xlink" role="img" artist="Katerina Limpitsouni" source="https://undraw.co/"><path d="M302.78223,124.67269l-23.49567,21.2346-12.39819-13.71835,23.49567-21.2346c.16486-4.70329,2.43771-9.68016,6.62344-13.46307,7.32394-6.61913,17.70172-7.0714,23.1796-1.01022s3.98141,16.34045-3.34253,22.95959c-4.18573,3.78291-9.36652,5.54221-14.06235,5.23207l.00003-.00002Z" fill="#e8989b"/><polyline points="201.41408 178.22413 282.30228 108.6435 303.30743 132.92381 210.90886 223.41096" fill="#6c63ff"/><polygon points="179.49284 218.84937 167.76244 265.20469 248.76244 264.20469 239.49284 221.84937 179.49284 218.84937" fill="#e8989b"/><polygon points="164.50948 377.22254 146.92328 454.16215 114.55573 608.20469 129.55573 611.20469 232.65599 381.61909 164.50948 377.22254" fill="#e8989b"/><polygon points="198.36821 394.74867 230.85165 466.67783 278.55573 611.20469 298.55573 606.20469 255.32085 357.07011 198.36821 394.74867" fill="#e8989b"/><path d="M172.3112,246.11915s-36.16377,63.68079-29.56894,134.02557c0,0,53.31493,40.37067,138.96342,3l-35.25659-140.68958-74.13788,3.664h-.00002Z" fill="#090814"/><path d="M112.05118,626.57139c-1.72186-1.41138-2.65133-2.98737-2.7624-4.68433-.12712-1.94104.83209-4.02362,2.85054-6.18994.04845-.62335.67491-8.34656,2.0709-9.72955-.11702-.41339-.82809-3.15417.33753-4.93384.54911-.83832,1.43419-1.32697,2.63074-1.45233l.05213-.00537.02583.04614c.03374.0603,3.43065,6.03473,8.54043,6.55927,2.92953.30072,5.86257-1.2254,8.71774-4.53723.10262-.24469.90935-4.27844,1.43005-6.94855l.02081-.10675,27.84171,14.81781,16.27454,4.55975c2.04546.57312,3.47401,2.47424,3.47401,4.62317,0,1.8324-1.05392,3.52942-2.68498,4.32324l-7.88858,3.83954c-3.2962,1.60437-6.97163,2.45233-10.62898,2.45233h-42.79037c-2.77234,0-5.44003-.93518-7.51163-2.6333l-.00002-.00006Z" fill="#090814"/><path d="M271.05118,626.57139c-1.72186-1.41138-2.65134-2.98737-2.76239-4.68433-.12711-1.94104.83209-4.02362,2.85052-6.18994.04846-.62335.6749-8.34656,2.07089-9.72955-.11703-.41339-.82809-3.15417.33752-4.93384.5491-.83832,1.4342-1.32697,2.63074-1.45233l.05212-.00537.02582.04614c.03375.0603,3.43066,6.03473,8.54044,6.55927,2.92953.30072,5.86258-1.2254,8.71774-4.53723.10263-.24469.90936-4.27844,1.43005-6.94855l.02081-.10675,27.84171,14.81781,16.27454,4.55975c2.04547.57312,3.47403,2.47424,3.47403,4.62317,0,1.8324-1.05392,3.52942-2.685,4.32324l-7.88858,3.83954c-3.2962,1.60437-6.97165,2.45233-10.62897,2.45233h-42.79037c-2.77234,0-5.44003-.93518-7.51163-2.6333v-.00006Z" fill="#090814"/><path d="M191.13168,74.99912c0-18.04382,14.62744-32.67126,32.67126-32.67126s32.67139,14.62744,32.67139,32.67126c0,14.63367-9.62158,27.01855-22.88306,31.17786l-6.31592,41.74072-32.19775-26.83142s6.95569-8.85986,10.68591-18.84985c-8.81641-5.85083-14.63184-15.86304-14.63184-27.2373Z" fill="#e8989b"/><path d="M192.0119,107.25103l38.48094,24.59833,17.76169,31.36719c5.14287,9.08231,6.87981,19.70042,4.89899,29.94804l-8.16068,42.21851h-85.0862l13.44414-88.08105c1.71593-11.24213,5.99794-21.93803,12.51405-31.25845l6.14706-8.79256Z" fill="#6c63ff"/><path d="M180.64169,117.92568s1.52565,11.57501,15.66063,11.953c19.11526.51118,28.6729.76675,28.6729.76677,0,0-24.23848-58.98738-14.27196-52.34201,9.96652,6.64536,36.5439-21.21402,36.5439-21.21402l7.84209,14.70773s18.73531-6.78444-2.02827-23.39782c0,0-24.77394-19.15327-51.07446-7.65169-26.30054,11.50158-21.34479,77.17803-21.34479,77.17803h-.00003Z" fill="#090814"/><path d="M198.59558,327.52714l-.68689-31.66202,18.4864-.40106.68689,31.66202c3.4491,3.20184,5.72592,8.17691,5.8483,13.81744.21411,9.86948-6.2336,18.01382-14.40144,18.19104-8.16785.17719-14.96269-7.67984-15.1768-17.54935-.12238-5.64056,1.93671-10.70966,5.24355-14.05807Z" fill="#e8989b"/><polyline points="224.11717 169.05724 224.11717 322.52595 192.0119 322.52595 182.52345 170.35273" fill="#6c63ff"/><path d="M413.59998,629.54075c0,.65997-.53003,1.19-1.19,1.19H1.19c-.66,0-1.19-.53003-1.19-1.19s.53-1.19,1.19-1.19h411.21997c.65997,0,1.19.53003,1.19,1.19Z" fill="#ccc"/><ellipse cx="440.85274" cy="163.05239" rx="134" ry="107.16996" transform="translate(8.83779 348.25581) rotate(-43.50192)" fill="#d6d6e3"/><path d="M318.65566,295.29515c-56.23189-59.25209-41.75839-164.28256,32.32748-234.59213,74.08587-70.30957,179.72929-79.27343,235.96118-20.02135" fill="none" stroke="#d6d6e3" stroke-miterlimit="10" stroke-width="3"/><path d="M492.73268,117.73524h-114.08716c-11.02161,0-19.95642,8.93457-19.95642,19.95654v50.08691c0,11.02197,8.93481,19.95654,19.95642,19.95654h19.41119l2.51965,16.771c.45703,3.04199,3.89984,4.60059,6.48718,2.93604l30.63898-19.70703h55.03015c11.02167,0,19.95642-8.93457,19.95642-19.95654v-50.08691c0-11.02197-8.93475-19.95654-19.95642-19.95654Z" fill="#090814"/><circle cx="509.68911" cy="114.73546" r="26" fill="#6c63ff"/></svg>